<svg width="19" height="20" viewBox="0 0 19 20" fill="none" xmlns="http://www.w3.org/2000/svg">
<path d="M3.08333 18.25H15.9167C16.9292 18.25 17.75 17.4292 17.75 16.4167V3.58333C17.75 2.57081 16.9292 1.75 15.9167 1.75H3.08333C2.07081 1.75 1.25 2.57081 1.25 3.58333V16.4167C1.25 17.4292 2.07081 18.25 3.08333 18.25ZM3.08333 18.25L13.1667 8.16667L17.75 12.75M7.66667 6.79167C7.66667 7.55106 7.05106 8.16667 6.29167 8.16667C5.53228 8.16667 4.91667 7.55106 4.91667 6.79167C4.91667 6.03228 5.53228 5.41667 6.29167 5.41667C7.05106 5.41667 7.66667 6.03228 7.66667 6.79167Z" stroke="#101828" stroke-width="2" stroke-linecap="round" stroke-linejoin="round"/>
</svg>
