<svg width="27" height="27" viewBox="0 0 27 27" fill="none" xmlns="http://www.w3.org/2000/svg">
<path d="M20.1785 8.98404C20.1785 7.28224 19.5024 5.65013 18.299 4.44678C17.0957 3.24342 15.4636 2.56738 13.7618 2.56738C12.0599 2.56738 10.4278 3.24342 9.22447 4.44678C8.02111 5.65013 7.34507 7.28224 7.34507 8.98404C7.34507 16.4701 4.13672 18.609 4.13672 18.609H23.3868C23.3868 18.609 20.1785 16.4701 20.1785 8.98404Z" stroke="#344054" stroke-width="2" stroke-linecap="round" stroke-linejoin="round"/>
<path d="M15.6119 22.8872C15.4239 23.2113 15.154 23.4804 14.8293 23.6674C14.5046 23.8544 14.1365 23.9529 13.7618 23.9529C13.3871 23.9529 13.0189 23.8544 12.6942 23.6674C12.3695 23.4804 12.0996 23.2113 11.9116 22.8872" stroke="#344054" stroke-width="2" stroke-linecap="round" stroke-linejoin="round"/>
</svg>
