<svg width="25" height="24" viewBox="0 0 25 24" fill="none" xmlns="http://www.w3.org/2000/svg">
<path d="M12.5 13C14.1569 13 15.5 11.6569 15.5 10C15.5 8.34315 14.1569 7 12.5 7C10.8431 7 9.5 8.34315 9.5 10C9.5 11.6569 10.8431 13 12.5 13Z" stroke="#344054" stroke-width="2" stroke-linecap="round" stroke-linejoin="round"/>
<path d="M20.5 3H4.5C3.94772 3 3.5 3.44772 3.5 4V20C3.5 20.5523 3.94772 21 4.5 21H20.5C21.0523 21 21.5 20.5523 21.5 20V4C21.5 3.44772 21.0523 3 20.5 3Z" stroke="#344054" stroke-width="2" stroke-linecap="round" stroke-linejoin="round"/>
<path d="M7.5 21C7.5 18.2386 9.73858 16 12.5 16C15.2614 16 17.5 18.2386 17.5 21" stroke="#344054" stroke-width="2" stroke-linecap="round" stroke-linejoin="round"/>
</svg>
