<svg width="40" height="40" viewBox="0 0 40 40" fill="none" xmlns="http://www.w3.org/2000/svg">
<path d="M25 28.3335L25 31.6668C25 32.5873 24.2538 33.3335 23.3333 33.3335L8.33333 33.3335C7.41286 33.3335 6.66667 32.5873 6.66667 31.6668L6.66667 8.3335C6.66667 7.41302 7.41286 6.66683 8.33333 6.66683L23.3333 6.66683C24.2538 6.66683 25 7.41302 25 8.3335L25 11.6668" stroke="black" stroke-width="2" stroke-linecap="round" stroke-linejoin="round"/>
<path d="M29.6262 24.2929C29.2357 24.6834 29.2357 25.3166 29.6262 25.7071C30.0167 26.0976 30.6499 26.0976 31.0404 25.7071L29.6262 24.2929ZM35.3333 20L36.0404 20.7071C36.431 20.3166 36.431 19.6834 36.0404 19.2929L35.3333 20ZM31.0404 14.2929C30.6499 13.9024 30.0167 13.9024 29.6262 14.2929C29.2357 14.6834 29.2357 15.3166 29.6262 15.7071L31.0404 14.2929ZM17 19C16.4477 19 16 19.4477 16 20C16 20.5523 16.4477 21 17 21L17 19ZM31.0404 25.7071L36.0404 20.7071L34.6262 19.2929L29.6262 24.2929L31.0404 25.7071ZM36.0404 19.2929L31.0404 14.2929L29.6262 15.7071L34.6262 20.7071L36.0404 19.2929ZM17 21L35.3333 21V19L17 19L17 21Z" fill="black"/>
</svg>
