<svg width="22" height="22" viewBox="0 0 22 22" fill="none" xmlns="http://www.w3.org/2000/svg">
<path d="M11 18.3332L10.6351 18.9884C10.8619 19.1148 11.1381 19.1148 11.3649 18.9884L11 18.3332ZM11 6.56519L10.3097 6.85853C10.4274 7.13542 10.6991 7.31519 11 7.31519C11.3009 7.31519 11.5726 7.13542 11.6903 6.85853L11 6.56519ZM2 8.22448C2 11.3307 4.29523 14.0522 6.37603 15.9065C7.4403 16.8549 8.5011 17.6226 9.29419 18.1526C9.69147 18.4181 10.0234 18.6252 10.2574 18.7668C10.3745 18.8375 10.4672 18.892 10.5314 18.9292C10.5636 18.9478 10.5886 18.9621 10.6061 18.972C10.6148 18.977 10.6216 18.9808 10.6264 18.9836C10.6289 18.9849 10.6308 18.986 10.6323 18.9868C10.633 18.9872 10.6336 18.9876 10.634 18.9878C10.6343 18.988 10.6345 18.9881 10.6346 18.9882C10.6349 18.9883 10.6351 18.9884 11 18.3332C11.3649 17.6779 11.3651 17.678 11.3652 17.6781C11.3652 17.6781 11.3652 17.6781 11.3652 17.6781C11.3652 17.6781 11.365 17.678 11.3647 17.6778C11.3642 17.6775 11.3631 17.6769 11.3616 17.6761C11.3585 17.6743 11.3535 17.6715 11.3466 17.6676C11.3328 17.6598 11.3116 17.6476 11.2833 17.6312C11.2267 17.5985 11.1421 17.5488 11.0336 17.4832C10.8164 17.3519 10.5038 17.1569 10.1277 16.9055C9.3739 16.4017 8.3722 15.6761 7.37397 14.7866C5.32977 12.965 3.5 10.6321 3.5 8.22448H2ZM11.6903 6.27186C10.6377 3.79501 8.24344 2.65458 6.08027 2.96708C4.99531 3.12381 3.9643 3.64744 3.20672 4.55031C2.44708 5.45561 2 6.69646 2 8.22448H3.5C3.5 6.99558 3.85501 6.11129 4.35578 5.51449C4.85861 4.91524 5.54636 4.55978 6.29473 4.45167C7.79823 4.23447 9.52899 5.02132 10.3097 6.85853L11.6903 6.27186ZM18.5 8.22448C18.5 10.6321 16.6702 12.965 14.626 14.7866C13.6278 15.6761 12.6261 16.4017 11.8723 16.9055C11.4962 17.1569 11.1836 17.3519 10.9664 17.4832C10.8579 17.5488 10.7733 17.5985 10.7167 17.6312C10.6884 17.6476 10.6672 17.6598 10.6534 17.6676C10.6465 17.6715 10.6415 17.6743 10.6384 17.6761C10.6369 17.6769 10.6358 17.6775 10.6353 17.6778C10.635 17.678 10.6348 17.6781 10.6348 17.6781C10.6348 17.6781 10.6348 17.6781 10.6348 17.6781C10.6349 17.678 10.6351 17.6779 11 18.3332C11.3649 18.9884 11.3651 18.9883 11.3654 18.9882C11.3655 18.9881 11.3657 18.988 11.366 18.9878C11.3664 18.9876 11.367 18.9872 11.3677 18.9868C11.3692 18.986 11.3711 18.9849 11.3736 18.9836C11.3784 18.9808 11.3852 18.977 11.394 18.972C11.4114 18.9621 11.4364 18.9478 11.4686 18.9292C11.5328 18.892 11.6255 18.8375 11.7426 18.7668C11.9766 18.6252 12.3085 18.4181 12.7058 18.1526C13.4989 17.6226 14.5597 16.8549 15.624 15.9065C17.7048 14.0522 20 11.3307 20 8.22448H18.5ZM11.6903 6.85853C12.471 5.02132 14.2018 4.23447 15.7053 4.45167C16.4536 4.55978 17.1414 4.91524 17.6442 5.51449C18.145 6.11129 18.5 6.99558 18.5 8.22448H20C20 6.69646 19.5529 5.45561 18.7933 4.55031C18.0357 3.64744 17.0047 3.12381 15.9197 2.96708C13.7566 2.65458 11.3623 3.79501 10.3097 6.27186L11.6903 6.85853Z" fill="#344054"/>
</svg>
