<svg width="32" height="27" viewBox="0 0 32 27" fill="none" xmlns="http://www.w3.org/2000/svg">
<path d="M20.6452 8.34579L16.7448 0.463122C16.4696 -0.0931763 15.6214 -0.0931758 15.3461 0.463122L11.4457 8.34579C11.3335 8.57251 11.103 8.72862 10.8371 8.75802L1.58953 9.7801C0.936907 9.85224 0.674813 10.6042 1.15731 11.0201L7.99425 16.914C8.19089 17.0835 8.27893 17.3361 8.22674 17.581L6.41187 26.0953C6.28379 26.6962 6.96997 27.1609 7.54343 26.8617L15.6693 22.6216C15.903 22.4997 16.1879 22.4997 16.4217 22.6216L24.5475 26.8617C25.121 27.1609 25.8072 26.6962 25.6791 26.0953L23.8642 17.581C23.812 17.3361 23.9001 17.0835 24.0967 16.914L30.9337 11.0201C31.4162 10.6042 31.1541 9.85224 30.5014 9.7801L21.2539 8.75802C20.9879 8.72862 20.7574 8.57251 20.6452 8.34579Z" fill="#53B1FD"/>
<g clip-path="url(#clip0_756_34598)">
<path d="M12.5458 18.501L19.5458 18.501C19.822 18.501 20.0458 18.2771 20.0458 18.001L20.0458 13.001C20.0458 12.7248 19.822 12.501 19.5458 12.501L12.5458 12.501C12.2697 12.501 12.0458 12.7248 12.0458 13.001L12.0458 18.001C12.0458 18.2771 12.2697 18.501 12.5458 18.501Z" fill="white" stroke="white" stroke-width="2" stroke-linecap="round" stroke-linejoin="round"/>
<path d="M17.4305 12.501L17.4305 11.501L17.4305 11.501L17.4305 12.501ZM14.6612 12.501L14.6612 13.501L14.6612 13.501L14.6612 12.501ZM14.5458 12.3856L13.5458 12.3856L14.5458 12.3856ZM14.5458 11.001L15.5458 11.001L14.5458 11.001ZM17.5458 11.001L16.5458 11.001L16.5458 11.001L17.5458 11.001ZM17.5458 12.3856L18.5458 12.3856L18.5458 12.3856L17.5458 12.3856ZM16.0458 9.50098L16.0458 10.501L16.0458 9.50098ZM17.4305 11.501L14.6612 11.501L14.6612 13.501L17.4305 13.501L17.4305 11.501ZM15.5458 12.3856L15.5458 11.001L13.5458 11.001L13.5458 12.3856L15.5458 12.3856ZM16.5458 11.001L16.5458 12.3856L18.5458 12.3856L18.5458 11.001L16.5458 11.001ZM16.0458 10.501C16.322 10.501 16.5458 10.7248 16.5458 11.001L18.5458 11.001C18.5458 9.62026 17.4265 8.50098 16.0458 8.50098L16.0458 10.501ZM15.5458 11.001C15.5458 10.7248 15.7697 10.501 16.0458 10.501L16.0458 8.50098C14.6651 8.50098 13.5458 9.62026 13.5458 11.001L15.5458 11.001ZM14.6612 11.501C15.1498 11.501 15.5458 11.897 15.5458 12.3856L13.5458 12.3856C13.5458 13.0016 14.0452 13.501 14.6612 13.501L14.6612 11.501ZM17.4305 13.501C18.0465 13.501 18.5458 13.0016 18.5458 12.3856L16.5458 12.3856C16.5458 11.897 16.9419 11.501 17.4305 11.501L17.4305 13.501Z" fill="white"/>
</g>
<defs>
<clipPath id="clip0_756_34598">
<rect width="12" height="12" fill="white" transform="translate(10.0458 8.00098)"/>
</clipPath>
</defs>
</svg>
