<svg width="40" height="40" viewBox="0 0 40 40" fill="none" xmlns="http://www.w3.org/2000/svg">
<path d="M15.15 14.9999C15.5419 13.886 16.3153 12.9468 17.3333 12.3485C18.3513 11.7502 19.5482 11.5315 20.712 11.7311C21.8758 11.9307 22.9314 12.5358 23.6918 13.4391C24.4523 14.3425 24.8685 15.4858 24.8667 16.6666C24.8667 19.9999 19.8667 21.6666 19.8667 21.6666M20 28.3333H20.0167M36.6667 19.9999C36.6667 29.2047 29.2048 36.6666 20 36.6666C10.7953 36.6666 3.33337 29.2047 3.33337 19.9999C3.33337 10.7952 10.7953 3.33325 20 3.33325C29.2048 3.33325 36.6667 10.7952 36.6667 19.9999Z" stroke="#344054" stroke-width="2" stroke-linecap="round" stroke-linejoin="round"/>
</svg>
