<svg width="23" height="22" viewBox="0 0 23 22" fill="none" xmlns="http://www.w3.org/2000/svg">
<path d="M9.66658 4.5835H5.99992C5.49366 4.5835 5.08325 4.9939 5.08325 5.50016V16.5002C5.08325 17.0064 5.49366 17.4168 5.99992 17.4168H16.9999C17.5062 17.4168 17.9166 17.0064 17.9166 16.5002V12.8335" stroke="#344054" stroke-width="1.5" stroke-linecap="round" stroke-linejoin="round"/>
<path d="M18.0833 8.24984C18.0833 8.66405 18.4191 8.99984 18.8333 8.99984C19.2475 8.99984 19.5833 8.66405 19.5833 8.24984H18.0833ZM18.8333 3.6665L19.5833 3.6665C19.5833 3.46759 19.5043 3.27683 19.3637 3.13617C19.223 2.99552 19.0322 2.9165 18.8333 2.9165V3.6665ZM14.25 2.9165C13.8358 2.9165 13.5 3.25229 13.5 3.6665C13.5 4.08072 13.8358 4.4165 14.25 4.4165V2.9165ZM19.5833 8.24984L19.5833 3.6665L18.0833 3.6665L18.0833 8.24984H19.5833ZM18.8333 2.9165H14.25V4.4165H18.8333V2.9165Z" fill="#344054"/>
<path d="M11.8864 9.55284C11.5935 9.84573 11.5935 10.3206 11.8864 10.6135C12.1793 10.9064 12.6542 10.9064 12.9471 10.6135L11.8864 9.55284ZM19.3637 4.19683C19.6566 3.90394 19.6566 3.42907 19.3637 3.13617C19.0709 2.84328 18.596 2.84328 18.3031 3.13617L19.3637 4.19683ZM12.9471 10.6135L19.3637 4.19683L18.3031 3.13617L11.8864 9.55284L12.9471 10.6135Z" fill="#344054"/>
</svg>
