<svg width="25" height="24" viewBox="0 0 25 24" fill="none" xmlns="http://www.w3.org/2000/svg">
<path d="M5.5 21L19.5 21C20.0523 21 20.5 20.5523 20.5 20L20.5 10C20.5 9.44772 20.0523 9 19.5 9L5.5 9C4.94772 9 4.5 9.44772 4.5 10L4.5 20C4.5 20.5523 4.94772 21 5.5 21Z" fill="#344054" stroke="#344054" stroke-width="2" stroke-linecap="round" stroke-linejoin="round"/>
<path d="M15.2692 9V8V9ZM9.73077 9L9.73077 10H9.73077L9.73077 9ZM9.5 8.76923H8.5H9.5ZM9.5 6H10.5H9.5ZM15.5 6H14.5V6L15.5 6ZM15.5 8.76923H16.5H15.5ZM12.5 3V4V3ZM15.2692 8L9.73077 8L9.73077 10L15.2692 10V8ZM10.5 8.76923L10.5 6H8.5L8.5 8.76923H10.5ZM14.5 6L14.5 8.76923H16.5L16.5 6L14.5 6ZM12.5 4C13.6046 4 14.5 4.89543 14.5 6H16.5C16.5 3.79086 14.7091 2 12.5 2V4ZM10.5 6C10.5 4.89543 11.3954 4 12.5 4V2C10.2909 2 8.5 3.79086 8.5 6H10.5ZM9.73077 8C10.1556 8 10.5 8.3444 10.5 8.76923H8.5C8.5 9.44896 9.05103 10 9.73077 10L9.73077 8ZM15.2692 10C15.949 10 16.5 9.44897 16.5 8.76923H14.5C14.5 8.34439 14.8444 8 15.2692 8V10Z" fill="#344054"/>
</svg>
