<svg width="32" height="27" viewBox="0 0 32 27" fill="none" xmlns="http://www.w3.org/2000/svg">
<path d="M20.5543 8.34579L16.6539 0.463122C16.3786 -0.0931763 15.5305 -0.0931758 15.2552 0.463122L11.3548 8.34579C11.2426 8.57251 11.0121 8.72862 10.7461 8.75802L1.49858 9.7801C0.845964 9.85224 0.58387 10.6042 1.06637 11.0201L7.90331 16.914C8.09995 17.0835 8.18799 17.3361 8.13579 17.581L6.32093 26.0953C6.19285 26.6962 6.87902 27.1609 7.45248 26.8617L15.5784 22.6216C15.8121 22.4997 16.097 22.4997 16.3307 22.6216L24.4566 26.8617C25.0301 27.1609 25.7162 26.6962 25.5882 26.0953L23.7733 17.581C23.7211 17.3361 23.8091 17.0835 24.0058 16.914L30.8427 11.0201C31.3252 10.6042 31.0631 9.85224 30.4105 9.7801L21.163 8.75802C20.897 8.72862 20.6665 8.57251 20.5543 8.34579Z" fill="#382E9A"/>
<g clip-path="url(#clip0_756_34607)">
<path d="M12.4549 18.501L19.4549 18.501C19.731 18.501 19.9549 18.2771 19.9549 18.001L19.9549 13.001C19.9549 12.7248 19.731 12.501 19.4549 12.501L12.4549 12.501C12.1788 12.501 11.9549 12.7248 11.9549 13.001L11.9549 18.001C11.9549 18.2771 12.1788 18.501 12.4549 18.501Z" fill="white" stroke="white" stroke-width="2" stroke-linecap="round" stroke-linejoin="round"/>
<path d="M17.3395 12.501L17.3395 11.501L17.3395 11.501L17.3395 12.501ZM14.5703 12.501L14.5703 13.501L14.5703 13.501L14.5703 12.501ZM14.4549 12.3856L13.4549 12.3856L14.4549 12.3856ZM14.4549 11.001L15.4549 11.001L14.4549 11.001ZM17.4549 11.001L16.4549 11.001L16.4549 11.001L17.4549 11.001ZM17.4549 12.3856L18.4549 12.3856L18.4549 12.3856L17.4549 12.3856ZM15.9549 9.50098L15.9549 10.501L15.9549 9.50098ZM17.3395 11.501L14.5703 11.501L14.5703 13.501L17.3395 13.501L17.3395 11.501ZM15.4549 12.3856L15.4549 11.001L13.4549 11.001L13.4549 12.3856L15.4549 12.3856ZM16.4549 11.001L16.4549 12.3856L18.4549 12.3856L18.4549 11.001L16.4549 11.001ZM15.9549 10.501C16.231 10.501 16.4549 10.7248 16.4549 11.001L18.4549 11.001C18.4549 9.62026 17.3356 8.50098 15.9549 8.50098L15.9549 10.501ZM15.4549 11.001C15.4549 10.7248 15.6788 10.501 15.9549 10.501L15.9549 8.50098C14.5742 8.50098 13.4549 9.62026 13.4549 11.001L15.4549 11.001ZM14.5703 11.501C15.0588 11.501 15.4549 11.897 15.4549 12.3856L13.4549 12.3856C13.4549 13.0016 13.9543 13.501 14.5703 13.501L14.5703 11.501ZM17.3395 13.501C17.9555 13.501 18.4549 13.0016 18.4549 12.3856L16.4549 12.3856C16.4549 11.897 16.851 11.501 17.3395 11.501L17.3395 13.501Z" fill="white"/>
</g>
<defs>
<clipPath id="clip0_756_34607">
<rect width="12" height="12" fill="white" transform="translate(9.9549 8.00098)"/>
</clipPath>
</defs>
</svg>
