<svg width="25" height="24" viewBox="0 0 25 24" fill="none" xmlns="http://www.w3.org/2000/svg">
<path d="M9.5 17V16C8.94772 16 8.5 16.4477 8.5 17H9.5ZM15.5 17H16.5C16.5 16.4477 16.0523 16 15.5 16V17ZM9.5 18H15.5V16H9.5V18ZM14.5 17V18H16.5V17H14.5ZM10.5 18V17H8.5V18H10.5ZM12.5 20C11.3954 20 10.5 19.1046 10.5 18H8.5C8.5 20.2091 10.2909 22 12.5 22V20ZM14.5 18C14.5 19.1046 13.6046 20 12.5 20V22C14.7091 22 16.5 20.2091 16.5 18H14.5Z" fill="#344054"/>
<path d="M21.5 6C21.5 8.20914 19.7091 10 17.5 10C15.2909 10 13.5 8.20914 13.5 6C13.5 3.79086 15.2909 2 17.5 2C19.7091 2 21.5 3.79086 21.5 6Z" stroke="#344054" stroke-width="2" stroke-linecap="round" stroke-linejoin="round"/>
<path d="M14.5468 3.304C13.8994 3.10634 13.2121 3 12.5 3C8.634 3 5.5 6.13401 5.5 9.99998V13.7224C5.5 13.9002 5.4294 14.0706 5.30372 14.1963L4.79289 14.7071C4.60536 14.8947 4.5 15.149 4.5 15.4142V16C4.5 16.5523 4.94772 17 5.5 17H19.5C20.0523 17 20.5 16.5523 20.5 16V15.4142C20.5 15.149 20.3946 14.8947 20.2071 14.7071L19.6963 14.1963C19.5706 14.0706 19.5 13.9002 19.5 13.7224V9.99998C19.5 9.82354 19.4935 9.64862 19.4803 9.47617" stroke="#344054" stroke-width="2" stroke-linecap="round" stroke-linejoin="round"/>
</svg>
