<svg width="23" height="22" viewBox="0 0 23 22" fill="none" xmlns="http://www.w3.org/2000/svg">
<path d="M7.08622 17.9713L7.48802 17.338C7.29762 17.2172 7.06297 17.1884 6.84905 17.2597L7.08622 17.9713ZM3.25 19.25L2.53849 19.0128C2.44865 19.2823 2.5188 19.5795 2.71967 19.7803C2.92054 19.9812 3.21767 20.0513 3.48717 19.9615L3.25 19.25ZM4.52874 15.4138L5.24025 15.651C5.31156 15.437 5.28283 15.2024 5.16203 15.012L4.52874 15.4138ZM11.5 20C16.4706 20 20.5 15.9706 20.5 11H19C19 15.1421 15.6421 18.5 11.5 18.5V20ZM6.68442 18.6046C8.07737 19.4883 9.73008 20 11.5 20V18.5C10.023 18.5 8.64779 18.0738 7.48802 17.338L6.68442 18.6046ZM6.84905 17.2597L3.01283 18.5385L3.48717 19.9615L7.32339 18.6828L6.84905 17.2597ZM3.96151 19.4872L5.24025 15.651L3.81723 15.1766L2.53849 19.0128L3.96151 19.4872ZM2.5 11C2.5 12.7699 3.01167 14.4226 3.89545 15.8156L5.16203 15.012C4.4262 13.8522 4 12.477 4 11H2.5ZM11.5 2C6.52944 2 2.5 6.02944 2.5 11H4C4 6.85786 7.35786 3.5 11.5 3.5V2ZM20.5 11C20.5 6.02944 16.4706 2 11.5 2V3.5C15.6421 3.5 19 6.85786 19 11H20.5Z" fill="#344054"/>
</svg>
