<svg width="40" height="40" viewBox="0 0 40 40" fill="none" xmlns="http://www.w3.org/2000/svg">
<path d="M20 25.0001C22.7614 25.0001 25 22.7615 25 20.0001C25 17.2387 22.7614 15.0001 20 15.0001C17.2385 15.0001 15 17.2387 15 20.0001C15 22.7615 17.2385 25.0001 20 25.0001Z" stroke="#344054" stroke-width="2" stroke-linecap="round" stroke-linejoin="round"/>
<path d="M32.3333 25.0001C32.1114 25.5028 32.0453 26.0604 32.1433 26.6011C32.2413 27.1417 32.4991 27.6406 32.8833 28.0334L32.9833 28.1334C33.2932 28.443 33.5391 28.8106 33.7068 29.2153C33.8746 29.6199 33.9609 30.0537 33.9609 30.4917C33.9609 30.9298 33.8746 31.3636 33.7068 31.7682C33.5391 32.1729 33.2932 32.5405 32.9833 32.8501C32.6737 33.16 32.3061 33.4059 31.9014 33.5736C31.4968 33.7414 31.063 33.8277 30.625 33.8277C30.1869 33.8277 29.7531 33.7414 29.3485 33.5736C28.9438 33.4059 28.5762 33.16 28.2666 32.8501L28.1666 32.7501C27.7738 32.3658 27.2749 32.1081 26.7343 32.0101C26.1936 31.912 25.636 31.9782 25.1333 32.2001C24.6403 32.4113 24.2199 32.7622 23.9238 33.2093C23.6277 33.6565 23.4688 34.1804 23.4666 34.7167V35.0001C23.4666 35.8841 23.1154 36.732 22.4903 37.3571C21.8652 37.9822 21.0173 38.3334 20.1333 38.3334C19.2492 38.3334 18.4014 37.9822 17.7763 37.3571C17.1511 36.732 16.8 35.8841 16.8 35.0001V34.8501C16.7871 34.2984 16.6085 33.7634 16.2875 33.3146C15.9665 32.8658 15.5179 32.5239 15 32.3334C14.4973 32.1116 13.9396 32.0454 13.399 32.1434C12.8583 32.2414 12.3594 32.4992 11.9666 32.8834L11.8666 32.9834C11.557 33.2933 11.1894 33.5392 10.7848 33.7069C10.3801 33.8747 9.94634 33.961 9.50829 33.961C9.07024 33.961 8.63648 33.8747 8.23182 33.7069C7.82716 33.5392 7.45954 33.2933 7.14996 32.9834C6.84004 32.6738 6.59417 32.3062 6.42643 31.9015C6.25868 31.4969 6.17234 31.0631 6.17234 30.6251C6.17234 30.187 6.25868 29.7533 6.42643 29.3486C6.59417 28.944 6.84004 28.5763 7.14996 28.2667L7.24996 28.1667C7.63419 27.7739 7.89193 27.2751 7.98997 26.7344C8.088 26.1937 8.02182 25.6361 7.79996 25.1334C7.58869 24.6405 7.23788 24.2201 6.79073 23.9239C6.34358 23.6278 5.8196 23.4689 5.28329 23.4667H4.99996C4.1159 23.4667 3.26806 23.1156 2.64294 22.4904C2.01782 21.8653 1.66663 21.0175 1.66663 20.1334C1.66663 19.2494 2.01782 18.4015 2.64294 17.7764C3.26806 17.1513 4.1159 16.8001 4.99996 16.8001H5.14996C5.70162 16.7872 6.23663 16.6086 6.68546 16.2876C7.13428 15.9666 7.47615 15.518 7.66663 15.0001C7.88848 14.4974 7.95466 13.9398 7.85663 13.3991C7.7586 12.8584 7.50085 12.3595 7.11663 11.9667L7.01663 11.8667C6.7067 11.5572 6.46084 11.1895 6.29309 10.7849C6.12535 10.3802 6.039 9.94647 6.039 9.50841C6.039 9.07036 6.12535 8.63661 6.29309 8.23195C6.46084 7.82729 6.7067 7.45966 7.01663 7.15008C7.3262 6.84016 7.69383 6.5943 8.09849 6.42655C8.50315 6.2588 8.93691 6.17246 9.37496 6.17246C9.81301 6.17246 10.2468 6.2588 10.6514 6.42655C11.0561 6.5943 11.4237 6.84016 11.7333 7.15008L11.8333 7.25008C12.2261 7.63431 12.725 7.89206 13.2656 7.99009C13.8063 8.08812 14.3639 8.02194 14.8666 7.80008H15C15.4929 7.58881 15.9133 7.23801 16.2094 6.79086C16.5056 6.34371 16.6645 5.81973 16.6666 5.28341V5.00008C16.6666 4.11603 17.0178 3.26818 17.6429 2.64306C18.2681 2.01794 19.1159 1.66675 20 1.66675C20.884 1.66675 21.7319 2.01794 22.357 2.64306C22.9821 3.26818 23.3333 4.11603 23.3333 5.00008V5.15008C23.3354 5.68639 23.4943 6.21037 23.7905 6.65752C24.0866 7.10467 24.507 7.45548 25 7.66675C25.5027 7.88861 26.0603 7.95479 26.6009 7.85675C27.1416 7.75872 27.6405 7.50098 28.0333 7.11675L28.1333 7.01675C28.4429 6.70683 28.8105 6.46096 29.2152 6.29322C29.6198 6.12547 30.0536 6.03913 30.4916 6.03913C30.9297 6.03913 31.3634 6.12547 31.7681 6.29322C32.1728 6.46096 32.5404 6.70683 32.85 7.01675C33.1599 7.32632 33.4057 7.69395 33.5735 8.09861C33.7412 8.50327 33.8276 8.93703 33.8276 9.37508C33.8276 9.81313 33.7412 10.2469 33.5735 10.6515C33.4057 11.0562 33.1599 11.4238 32.85 11.7334L32.75 11.8334C32.3657 12.2262 32.108 12.7251 32.0099 13.2658C31.9119 13.8064 31.9781 14.3641 32.2 14.8667V15.0001C32.4112 15.493 32.762 15.9134 33.2092 16.2096C33.6563 16.5057 34.1803 16.6646 34.7166 16.6667H35C35.884 16.6667 36.7319 17.0179 37.357 17.6431C37.9821 18.2682 38.3333 19.116 38.3333 20.0001C38.3333 20.8841 37.9821 21.732 37.357 22.3571C36.7319 22.9822 35.884 23.3334 35 23.3334H34.85C34.3136 23.3356 33.7897 23.4945 33.3425 23.7906C32.8954 24.0867 32.5446 24.5071 32.3333 25.0001Z" stroke="#344054" stroke-width="2" stroke-linecap="round" stroke-linejoin="round"/>
</svg>
