<svg width="32" height="32" viewBox="0 0 32 32" fill="none" xmlns="http://www.w3.org/2000/svg">
<path d="M15.6486 20.8375C17.798 20.8375 19.5405 19.095 19.5405 16.9456C19.5405 14.7962 17.798 13.0537 15.6486 13.0537C13.4992 13.0537 11.7567 14.7962 11.7567 16.9456C11.7567 19.095 13.4992 20.8375 15.6486 20.8375Z" stroke="#344054" stroke-linecap="round" stroke-linejoin="round"/>
<path d="M26.027 9.16211H5.2702C4.55372 9.16211 3.9729 9.74293 3.9729 10.4594V23.4324C3.9729 24.1489 4.55372 24.7297 5.2702 24.7297H26.027C26.7434 24.7297 27.3243 24.1489 27.3243 23.4324V10.4594C27.3243 9.74293 26.7434 9.16211 26.027 9.16211Z" stroke="#344054" stroke-linecap="round" stroke-linejoin="round"/>
<path d="M18.6055 5.27051H12.6918C12.1334 5.27051 11.6376 5.62782 11.4611 6.15756L11.0286 7.45486C10.7486 8.2949 11.3739 9.1624 12.2594 9.1624H19.0379C19.9234 9.1624 20.5487 8.2949 20.2686 7.45486L19.8362 6.15756C19.6596 5.62782 19.1639 5.27051 18.6055 5.27051Z" stroke="#344054" stroke-linecap="round" stroke-linejoin="round"/>
</svg>
