<svg width="19" height="19" viewBox="0 0 19 19" fill="none" xmlns="http://www.w3.org/2000/svg">
<path d="M17.1585 7.70104L10.1585 1.57604C9.78148 1.24614 9.21852 1.24614 8.8415 1.57604L1.8415 7.70104C1.62448 7.89092 1.5 8.16525 1.5 8.45361V16.9998C1.5 17.5521 1.94772 17.9998 2.5 17.9998H6.5C7.05228 17.9998 7.5 17.5521 7.5 16.9998V12.9998C7.5 12.4476 7.94772 11.9998 8.5 11.9998H10.5C11.0523 11.9998 11.5 12.4476 11.5 12.9998V16.9998C11.5 17.5521 11.9477 17.9998 12.5 17.9998H16.5C17.0523 17.9998 17.5 17.5521 17.5 16.9998V8.45361C17.5 8.16525 17.3755 7.89093 17.1585 7.70104Z" stroke="black" stroke-width="1.5" stroke-linecap="round" stroke-linejoin="round"/>
</svg>
