<svg width="14" height="14" viewBox="0 0 14 14" fill="none" xmlns="http://www.w3.org/2000/svg">
<path d="M9.12722 4.31818L7.32342 0.217069C7.19612 -0.0723565 6.80388 -0.0723562 6.67658 0.217069L4.87278 4.31818C4.8209 4.43614 4.71431 4.51736 4.5913 4.53266L0.314663 5.06442C0.012851 5.10195 -0.108358 5.49316 0.11478 5.70956L3.27661 8.77595C3.36755 8.86415 3.40826 8.99556 3.38412 9.12297L2.54482 13.5527C2.48558 13.8654 2.80291 14.1071 3.06812 13.9515L6.82603 11.7455C6.93412 11.682 7.06588 11.682 7.17397 11.7455L10.9319 13.9515C11.1971 14.1071 11.5144 13.8654 11.4552 13.5527L10.6159 9.12297C10.5917 8.99556 10.6325 8.86415 10.7234 8.77595L13.8852 5.70956C14.1084 5.49316 13.9871 5.10195 13.6853 5.06442L9.4087 4.53266C9.2857 4.51736 9.1791 4.43614 9.12722 4.31818Z" fill="#F9CD1C"/>
</svg>
