<svg width="31" height="27" viewBox="0 0 31 27" fill="none" xmlns="http://www.w3.org/2000/svg">
<path d="M20.4634 8.34579L16.5629 0.463122C16.2877 -0.0931763 15.4395 -0.0931758 15.1643 0.463122L11.2638 8.34579C11.1516 8.57251 10.9212 8.72862 10.6552 8.75802L1.40764 9.7801C0.755022 9.85224 0.492928 10.6042 0.975426 11.0201L7.81236 16.914C8.00901 17.0835 8.09705 17.3361 8.04485 17.581L6.22999 26.0953C6.10191 26.6962 6.78808 27.1609 7.36154 26.8617L15.4874 22.6216C15.7211 22.4997 16.0061 22.4997 16.2398 22.6216L24.3657 26.8617C24.9391 27.1609 25.6253 26.6962 25.4972 26.0953L23.6823 17.581C23.6301 17.3361 23.7182 17.0835 23.9148 16.914L30.7518 11.0201C31.2343 10.6042 30.9722 9.85224 30.3196 9.7801L21.072 8.75802C20.806 8.72862 20.5755 8.57251 20.4634 8.34579Z" fill="#DC6803"/>
<g clip-path="url(#clip0_756_34616)">
<path d="M12.364 18.501L19.364 18.501C19.6401 18.501 19.864 18.2771 19.864 18.001L19.864 13.001C19.864 12.7248 19.6401 12.501 19.364 12.501L12.364 12.501C12.0878 12.501 11.864 12.7248 11.864 13.001L11.864 18.001C11.864 18.2771 12.0878 18.501 12.364 18.501Z" fill="white" stroke="white" stroke-width="2" stroke-linecap="round" stroke-linejoin="round"/>
<path d="M17.2486 12.501L17.2486 11.501L17.2486 11.501L17.2486 12.501ZM14.4793 12.501L14.4793 13.501L14.4793 13.501L14.4793 12.501ZM14.364 12.3856L13.364 12.3856L14.364 12.3856ZM14.364 11.001L15.364 11.001L14.364 11.001ZM17.364 11.001L16.364 11.001L16.364 11.001L17.364 11.001ZM17.364 12.3856L18.364 12.3856L18.364 12.3856L17.364 12.3856ZM15.864 9.50098L15.864 10.501L15.864 9.50098ZM17.2486 11.501L14.4793 11.501L14.4793 13.501L17.2486 13.501L17.2486 11.501ZM15.364 12.3856L15.364 11.001L13.364 11.001L13.364 12.3856L15.364 12.3856ZM16.364 11.001L16.364 12.3856L18.364 12.3856L18.364 11.001L16.364 11.001ZM15.864 10.501C16.1401 10.501 16.364 10.7248 16.364 11.001L18.364 11.001C18.364 9.62026 17.2447 8.50098 15.864 8.50098L15.864 10.501ZM15.364 11.001C15.364 10.7248 15.5878 10.501 15.864 10.501L15.864 8.50098C14.4832 8.50098 13.364 9.62026 13.364 11.001L15.364 11.001ZM14.4793 11.501C14.9679 11.501 15.364 11.897 15.364 12.3856L13.364 12.3856C13.364 13.0016 13.8633 13.501 14.4793 13.501L14.4793 11.501ZM17.2486 13.501C17.8646 13.501 18.364 13.0016 18.364 12.3856L16.364 12.3856C16.364 11.897 16.76 11.501 17.2486 11.501L17.2486 13.501Z" fill="white"/>
</g>
<defs>
<clipPath id="clip0_756_34616">
<rect width="12" height="12" fill="white" transform="translate(9.86395 8.00098)"/>
</clipPath>
</defs>
</svg>
