<svg width="311" height="73" viewBox="0 0 311 73" fill="none" xmlns="http://www.w3.org/2000/svg">
<path d="M58.9645 3.10251H48.6393C47.1415 3.09871 45.6581 3.39127 44.2756 3.96308C42.8931 4.5349 41.6394 5.37451 40.5876 6.43281C38.4794 8.55048 37.29 11.4029 37.2739 14.3799V27.5299C37.2739 27.4988 37.2739 27.4677 37.2739 27.4365C37.2739 26.9308 37.3001 26.4302 37.3471 25.9322C37.7298 20.1488 40.1666 14.6874 44.2243 10.5192C48.2819 6.35096 53.6975 3.74596 59.5081 3.16736C59.7014 3.14661 59.8948 3.13105 60.0882 3.11548V3.10251H58.9645Z" fill="white"/>
<path d="M91.2598 27.3878C91.738 14.313 80.3492 2.91636 67.2042 3.14461C67.1781 3.1887 60.4096 3.11089 60.0881 3.14461V23.5647C61.8966 23.5803 65.7094 23.5803 67.4891 23.5647C71.8298 23.5959 71.8036 30.202 67.4891 30.2253H65.8139C65.1162 30.2253 64.5073 30.3395 64.4236 31.8075V53.457C64.3583 54.6709 64.5517 56.0896 65.0822 56.7199L70.071 64.6747C72.7706 69.3979 79.2699 70.8996 84.115 68.848C90.387 66.3892 93.1283 58.2761 89.3939 52.5985L84.6377 44.9679C84.5893 44.8987 84.5662 44.8151 84.5724 44.7311C84.5786 44.6471 84.6136 44.5677 84.6716 44.5062C89.0158 39.8605 91.3772 33.7249 91.2598 27.3878Z" fill="#F5FAFF"/>
<path d="M52.2045 50.3415H52.2202C49.8966 49.3256 47.7407 47.9677 45.8254 46.3135C45.517 46.0359 45.1982 45.7688 44.9003 45.4809C44.6389 45.2215 44.3933 44.9777 44.145 44.7235C39.6921 40.1121 37.2273 33.9585 37.2746 27.5714C37.2746 26.9905 37.3033 26.4147 37.3425 25.844L37.2877 22.8846C37.2877 22.8846 37.2877 27.8879 37.2877 27.8386V58.4208C37.2688 59.9455 37.5687 61.4574 38.1684 62.8612C42.9246 73.9285 59.4643 70.925 60.0601 58.9707V58.5453C59.8328 54.4162 55.6933 51.5475 52.2045 50.3415Z" fill="white"/>
<path d="M37.2746 27.5714C37.2266 33.9582 39.6905 40.1116 44.1424 44.7235C44.3907 44.9829 44.6468 45.2293 44.8977 45.4809C45.1956 45.7688 45.5144 46.0359 45.8228 46.3134C47.739 47.9631 49.8948 49.3166 52.2176 50.3285H52.2019C55.8057 51.5734 60.102 54.5925 60.068 58.9291C60.068 44.7728 60.0941 17.0851 60.0889 3.10254C53.88 3.57948 48.0812 6.36448 43.8516 10.9009C39.622 15.4372 37.2732 21.3908 37.2746 27.5714Z" fill="#B2DDFF"/>
<path d="M111.275 47.1875V25.6589H120.619C122.981 25.6589 124.803 26.229 126.086 27.369C127.368 28.4887 128.009 30.0664 128.009 32.1023C128.009 33.7105 127.592 35.044 126.757 36.1026C125.923 37.1409 124.722 37.8432 123.154 38.2097C124.192 38.5354 125.047 39.3192 125.719 40.561L129.323 47.1875H125.017L121.291 40.3167C120.925 39.6449 120.487 39.1868 119.978 38.9425C119.49 38.6983 118.859 38.5761 118.085 38.5761H115.184V47.1875H111.275ZM115.184 35.6751H119.948C122.798 35.6751 124.223 34.5147 124.223 32.1939C124.223 29.8934 122.798 28.7432 119.948 28.7432H115.184V35.6751Z" fill="white"/>
<path d="M132.82 47.1875V25.6589H147.142V28.7737H136.577V34.6979H146.471V37.8127H136.577V44.0728H147.142V47.1875H132.82Z" fill="white"/>
<path d="M149.637 47.1875L159.225 25.6589H161.851L171.471 47.1875H168.234L165.974 41.9352H155.072L152.843 47.1875H149.637ZM160.508 29.1707L156.202 39.3701H164.905L160.569 29.1707H160.508Z" fill="white"/>
<path d="M174.901 47.1875V25.6589H178.077V44.4698H188.734V47.1875H174.901Z" fill="white"/>
<path d="M199.109 47.1875L189.521 25.6589H193.704L200.819 42.1795L207.934 25.6589H211.965L202.377 47.1875H199.109Z" fill="white"/>
<path d="M214.588 47.1875V25.6589H218.497V47.1875H214.588Z" fill="white"/>
<path d="M223.787 47.1875V25.6589H238.109V28.7737H227.543V34.6979H237.437V37.8127H227.543V44.0728H238.109V47.1875H223.787Z" fill="white"/>
<path d="M248.454 47.1875L240.85 25.6589H244.881L250.225 41.5382L255.844 25.6589H258.745L264.241 41.752L269.738 25.6589H273.555L265.89 47.1875H262.653L257.187 31.6442L251.691 47.1875H248.454Z" fill="white"/>
</svg>
