<svg width="31" height="30" viewBox="0 0 31 30" fill="none" xmlns="http://www.w3.org/2000/svg">
<circle cx="15.5" cy="15" r="14.5" fill="white" stroke="#53B1FD"/>
<path d="M14.025 6.00001H11.157C10.7409 5.99895 10.3289 6.08022 9.94486 6.23905C9.56085 6.39789 9.21259 6.6311 8.92045 6.92507C8.33485 7.5133 8.00447 8.30563 8 9.13254V12.7852C8 12.7766 8 12.768 8 12.7593C8 12.6188 8.00726 12.4798 8.02033 12.3414C8.12663 10.735 8.8035 9.21797 9.93061 8.06015C11.0577 6.90234 12.562 6.17874 14.176 6.01802C14.2297 6.01226 14.2834 6.00794 14.3372 6.00361V6.00001H14.025Z" fill="#382E9A"/>
<path d="M22.9958 12.7463C23.1286 9.11447 19.9651 5.94879 16.3138 6.01219C16.3065 6.02444 14.4264 6.00283 14.3372 6.01219V11.6843C14.8395 11.6886 15.8986 11.6886 16.3929 11.6843C17.5987 11.693 17.5914 13.528 16.3929 13.5345H15.9276C15.7338 13.5345 15.5647 13.5662 15.5414 13.9739V19.9876C15.5233 20.3247 15.577 20.7188 15.7244 20.8939L17.1101 23.1035C17.86 24.4155 19.6653 24.8326 21.0111 24.2627C22.7533 23.5797 23.5148 21.3262 22.4775 19.7491L21.1563 17.6295C21.1429 17.6103 21.1365 17.5871 21.1382 17.5637C21.1399 17.5404 21.1496 17.5184 21.1658 17.5013C22.3724 16.2108 23.0284 14.5065 22.9958 12.7463Z" fill="#53B1FD"/>
<path d="M12.1473 19.1209H12.1516C11.5062 18.8387 10.9074 18.4615 10.3754 18.002C10.2897 17.9249 10.2011 17.8507 10.1184 17.7707C10.0458 17.6987 9.97755 17.631 9.90859 17.5604C8.6717 16.2794 7.98704 14.5702 8.00019 12.796C8.00019 12.6346 8.00817 12.4747 8.01906 12.3162L8.00382 11.4941C8.00382 11.4941 8.00382 12.8839 8.00382 12.8702V21.3651C7.99857 21.7886 8.08187 22.2086 8.24845 22.5985C9.5696 25.6727 14.1639 24.8384 14.3294 21.5178V21.3997C14.2662 20.2527 13.1164 19.4559 12.1473 19.1209Z" fill="#382E9A"/>
<path d="M8.00019 12.7968C7.98685 14.5708 8.67125 16.2801 9.90787 17.5611C9.97683 17.6332 10.048 17.7016 10.1177 17.7715C10.2004 17.8515 10.289 17.9257 10.3746 18.0028C10.9069 18.461 11.5057 18.837 12.1509 19.118V19.118H12.1466C13.1476 19.4638 14.341 20.3024 14.3315 21.507C14.3315 17.5748 14.3388 9.88397 14.3374 6C12.6127 6.13248 11.002 6.90607 9.82709 8.16615C8.65223 9.42623 7.99979 11.0799 8.00019 12.7968V12.7968Z" fill="#1570EF"/>
</svg>
