<svg width="155" height="40" viewBox="0 0 155 40" fill="none" xmlns="http://www.w3.org/2000/svg">
<path d="M48.001 26.5619V12.4619H54.121C55.6676 12.4619 56.861 12.8352 57.701 13.5819C58.541 14.3152 58.961 15.3486 58.961 16.6819C58.961 17.7352 58.6876 18.6086 58.141 19.3019C57.5943 19.9819 56.8076 20.4419 55.781 20.6819C56.461 20.8952 57.021 21.4086 57.461 22.2219L59.821 26.5619H57.001L54.561 22.0619C54.321 21.6219 54.0343 21.3219 53.701 21.1619C53.381 21.0019 52.9676 20.9219 52.461 20.9219H50.561V26.5619H48.001ZM50.561 19.0219H53.681C55.5476 19.0219 56.481 18.2619 56.481 16.7419C56.481 15.2352 55.5476 14.4819 53.681 14.4819H50.561V19.0219Z" fill="#0E1764"/>
<path d="M62.1119 26.5619V12.4619H71.4919V14.5019H64.5719V18.3819H71.0519V20.4219H64.5719V24.5219H71.4919V26.5619H62.1119Z" fill="#0E1764"/>
<path d="M73.1255 26.5619L79.4055 12.4619H81.1255L87.4255 26.5619H85.3055L83.8255 23.1219H76.6855L75.2255 26.5619H73.1255ZM80.2455 14.7619L77.4255 21.4419H83.1255L80.2855 14.7619H80.2455Z" fill="#0E1764"/>
<path d="M89.6721 26.5619V12.4619H91.7521V24.7819H98.7321V26.5619H89.6721Z" fill="#0E1764"/>
<path d="M105.527 26.5619L99.2472 12.4619H101.987L106.647 23.2819L111.307 12.4619H113.947L107.667 26.5619H105.527Z" fill="#0E1764"/>
<path d="M115.665 26.5619V12.4619H118.225V26.5619H115.665Z" fill="#0E1764"/>
<path d="M121.69 26.5619V12.4619H131.07V14.5019H124.15V18.3819H130.63V20.4219H124.15V24.5219H131.07V26.5619H121.69Z" fill="#0E1764"/>
<path d="M137.845 26.5619L132.865 12.4619H135.505L139.005 22.8619L142.685 12.4619H144.585L148.185 23.0019L151.785 12.4619H154.285L149.265 26.5619H147.145L143.565 16.3819L139.965 26.5619H137.845Z" fill="#0E1764"/>
<circle cx="20" cy="20" r="19.5" fill="white" stroke="#53B1FD"/>
<path d="M18.0334 8.00001H14.2093C13.6546 7.9986 13.1052 8.10696 12.5932 8.31874C12.0811 8.53052 11.6168 8.84147 11.2273 9.23343C10.4465 10.0177 10.006 11.0742 10 12.1767V17.047C10 17.0355 10 17.0239 10 17.0124C10 16.8251 10.0097 16.6397 10.0271 16.4553C10.1688 14.3133 11.0713 12.2906 12.5741 10.7469C14.0769 9.20312 16.0827 8.23832 18.2347 8.02403C18.3063 8.01634 18.3779 8.01058 18.4495 8.00482V8.00001H18.0334Z" fill="#382E9A"/>
<path d="M29.9943 16.9945C30.1714 12.1521 25.9534 7.93116 21.085 8.01569C21.0753 8.03202 18.5685 8.0032 18.4495 8.01569V15.5785C19.1192 15.5843 20.5314 15.5843 21.1905 15.5785C22.7981 15.5901 22.7884 18.0367 21.1905 18.0454H20.5701C20.3117 18.0454 20.0861 18.0876 20.0552 18.6313V26.6495C20.031 27.0991 20.1026 27.6245 20.2991 27.8579L22.1467 30.8041C23.1466 32.5534 25.5537 33.1096 27.3481 32.3497C29.671 31.4391 30.6863 28.4343 29.3032 26.3315L27.5417 23.5054C27.5238 23.4798 27.5152 23.4489 27.5175 23.4177C27.5198 23.3866 27.5328 23.3572 27.5543 23.3345C29.1632 21.6139 30.0377 19.3415 29.9943 16.9945Z" fill="#53B1FD"/>
<path d="M15.5297 25.4956H15.5355C14.675 25.1194 13.8765 24.6165 13.1671 24.0038C13.0529 23.901 12.9348 23.8021 12.8245 23.6955C12.7277 23.5994 12.6367 23.5091 12.5448 23.415C10.8956 21.707 9.98272 19.428 10.0002 17.0625C10.0002 16.8473 10.0109 16.634 10.0254 16.4227L10.0051 15.3267C10.0051 15.3267 10.0051 17.1797 10.0051 17.1614V28.4879C9.9981 29.0526 10.1092 29.6126 10.3313 30.1325C12.0928 34.2314 18.2185 33.119 18.4392 28.6916V28.534C18.3549 27.0047 16.8218 25.9423 15.5297 25.4956Z" fill="#382E9A"/>
<path d="M10.0003 17.0623C9.98247 19.4278 10.895 21.7068 12.5438 23.4148C12.6358 23.5109 12.7306 23.6021 12.8235 23.6953C12.9339 23.802 13.052 23.9009 13.1662 24.0037C13.8759 24.6146 14.6743 25.1159 15.5346 25.4907H15.5288C16.8635 25.9518 18.4546 27.0699 18.4421 28.6761C18.4421 23.4331 18.4517 13.1786 18.4498 8C16.1503 8.17664 14.0026 9.2081 12.4361 10.8882C10.8696 12.5683 9.99972 14.7733 10.0003 17.0623Z" fill="#1570EF"/>
</svg>
